<svg width="40" height="40" viewBox="0 0 40 40" fill="none" xmlns="http://www.w3.org/2000/svg">
<g clip-path="url(#clip0_85_766)">
<path d="M29.792 26.7035C29.429 27.542 28.9994 28.3139 28.5016 29.0235C27.8231 29.9908 27.2676 30.6605 26.8395 31.0323C26.1758 31.6426 25.4647 31.9552 24.7032 31.973C24.1566 31.973 23.4973 31.8175 22.73 31.5019C21.9601 31.1878 21.2525 31.0323 20.6056 31.0323C19.9271 31.0323 19.1994 31.1878 18.4211 31.5019C17.6415 31.8175 17.0136 31.9819 16.5334 31.9982C15.8032 32.0293 15.0754 31.7078 14.3489 31.0323C13.8852 30.6279 13.3052 29.9345 12.6104 28.9524C11.865 27.9035 11.2521 26.6872 10.772 25.3006C10.2578 23.8029 10 22.3526 10 20.9484C10 19.3401 10.3475 17.9528 11.0437 16.7904C11.5908 15.8566 12.3186 15.12 13.2295 14.5793C14.1405 14.0386 15.1247 13.763 16.1847 13.7454C16.7647 13.7454 17.5252 13.9248 18.4704 14.2774C19.4129 14.6312 20.0181 14.8106 20.2834 14.8106C20.4817 14.8106 21.154 14.6008 22.2937 14.1826C23.3714 13.7947 24.281 13.6342 25.0262 13.6974C27.0454 13.8604 28.5624 14.6563 29.5712 16.0904C27.7654 17.1846 26.8721 18.7171 26.8898 20.6831C26.9061 22.2145 27.4617 23.4888 28.5535 24.5006C29.0483 24.9703 29.6009 25.3332 30.2156 25.591C30.0823 25.9776 29.9416 26.348 29.792 26.7035ZM25.161 8.48038C25.161 9.68066 24.7225 10.8013 23.8484 11.8386C22.7937 13.0718 21.5179 13.7844 20.1343 13.6719C20.1167 13.5279 20.1065 13.3764 20.1065 13.2171C20.1065 12.0649 20.6081 10.8317 21.4989 9.82345C21.9436 9.31295 22.5092 8.88847 23.1951 8.54986C23.8796 8.2163 24.5269 8.03183 25.1358 8.00024C25.1536 8.1607 25.161 8.32117 25.161 8.48037V8.48038Z" fill="#5A5561"/>
</g>
<rect x="0.5" y="0.5" width="39" height="39" rx="7.5" stroke="#E9F1F4"/>
<defs>
<clipPath id="clip0_85_766">
<rect width="24" height="24" fill="white" transform="translate(8 8)"/>
</clipPath>
</defs>
</svg>
