<svg width="40" height="40" viewBox="0 0 40 40" fill="none" xmlns="http://www.w3.org/2000/svg">
<g clip-path="url(#clip0_85_762)">
<path d="M31.766 20.2764C31.766 19.4607 31.6999 18.6406 31.5588 17.8381H20.24V22.4591H26.7217C26.4528 23.9494 25.5885 25.2678 24.323 26.1056V29.1039H28.19C30.4609 27.0139 31.766 23.9274 31.766 20.2764Z" fill="#4285F4"/>
<path d="M20.24 32.0008C23.4764 32.0008 26.2058 30.9382 28.1944 29.1039L24.3274 26.1055C23.2516 26.8375 21.8626 27.252 20.2444 27.252C17.1138 27.252 14.4594 25.1399 13.5069 22.3003H9.51649V25.3912C11.5536 29.4434 15.7028 32.0008 20.24 32.0008Z" fill="#34A853"/>
<path d="M13.5025 22.3003C12.9999 20.8099 12.9999 19.1961 13.5025 17.7057V14.6148H9.5165C7.8145 18.0056 7.8145 22.0004 9.5165 25.3912L13.5025 22.3003Z" fill="#FBBC04"/>
<path d="M20.24 12.7497C21.9508 12.7232 23.6043 13.367 24.8433 14.5487L28.2694 11.1226C26.1 9.0855 23.2207 7.96553 20.24 8.00081C15.7028 8.00081 11.5536 10.5582 9.51649 14.6148L13.5025 17.7058C14.4505 14.8617 17.1094 12.7497 20.24 12.7497Z" fill="#EA4335"/>
</g>
<rect x="0.5" y="0.5" width="39" height="39" rx="7.5" stroke="#E9F1F4"/>
<defs>
<clipPath id="clip0_85_762">
<rect width="24" height="24" fill="white" transform="translate(8 8)"/>
</clipPath>
</defs>
</svg>
