<svg width="106" height="132" viewBox="0 0 106 132" fill="none" xmlns="http://www.w3.org/2000/svg">
<g clip-path="url(#clip0_85_770)">
<path fill-rule="evenodd" clip-rule="evenodd" d="M90.4161 18.1499H70.6937C70.6937 14.2191 69.4368 10.5765 67.3022 7.60225C63.9992 3.00127 58.596 0 52.4992 0C46.397 0 40.9956 2.99947 37.6962 7.60225C35.5616 10.5747 34.3065 14.2173 34.3047 18.1499H14.5841C13.45 18.1499 12.3701 19.0885 12.5128 20.2162L17.0907 56.6152C17.1106 56.6043 17.1323 56.5935 17.1521 56.5827C22.4615 53.8517 24.9627 51.4611 28.6576 44.2372L34.3841 33.0428L34.5557 27.7626C35.1534 24.7758 38.33 24.048 40.3797 26.8799C42.0737 27.0853 43.9825 28.8795 44.7139 32.6428C45.039 34.3128 44.8891 36.5142 44.5171 38.5301C48.4594 37.0763 52.445 35.8315 56.4867 34.8749C58.717 34.3488 60.3603 36.1359 60.7576 38.2509C63.6922 39.0993 64.9419 44.1147 62.2078 46.1954C64.6909 46.2728 66.0453 53.6463 62.0489 55.0136C64.7487 54.8533 65.406 62.1367 61.4981 63.3365C63.499 67.9933 61.2109 69.5444 55.078 71.562C55.0257 71.5801 54.9715 71.5963 54.9173 71.6143C54.8252 71.6449 54.7313 71.6755 54.6356 71.7062C54.6194 71.7116 54.6031 71.7152 54.5868 71.7206C54.4731 71.7566 54.3575 71.7926 54.2383 71.8305C53.8825 71.9422 53.5051 72.0556 53.1042 72.1745C52.9724 72.2142 52.8351 72.2538 52.6979 72.2934C52.5245 72.3439 52.3493 72.3943 52.1687 72.4448C52.0784 72.4718 51.9863 72.497 51.8924 72.524C51.4807 72.6411 51.0491 72.7618 50.603 72.8825C50.4748 72.9186 50.3466 72.9528 50.2147 72.9888C49.7271 73.1221 49.2215 73.2572 48.6996 73.3941C48.5262 73.4392 48.351 73.486 48.1722 73.5329C47.9935 73.5797 47.8129 73.6265 47.6323 73.6734C47.4499 73.7202 47.2675 73.7671 47.0815 73.8157C47.067 73.8193 47.0526 73.8229 47.0363 73.8265C46.8774 73.8679 46.7167 73.9094 46.5542 73.9508C46.2291 74.0337 45.9004 74.1183 45.5663 74.2012C45.3063 74.2679 45.0444 74.3327 44.7789 74.3994C44.2841 74.5237 43.7785 74.648 43.2656 74.7741C43.0633 74.8245 42.8593 74.875 42.6534 74.9254C41.8642 75.1182 41.057 75.3127 40.2317 75.5109C40.0727 75.5487 39.9138 75.5866 39.7549 75.6244C38.7815 75.8568 37.7865 76.091 36.7733 76.3288C36.19 76.4639 35.5995 76.6008 35.0036 76.7395C34.0735 76.9539 33.1326 77.1701 32.1827 77.3844C31.9461 77.4403 31.7078 77.4943 31.4694 77.5466C31.426 77.5574 31.3827 77.5664 31.3376 77.5772C30.9258 77.6709 30.5141 77.7627 30.1005 77.8564C29.8206 77.9195 29.5407 77.9825 29.2608 78.0438C28.7966 78.1483 28.3307 78.2527 27.8648 78.3554C27.3808 78.4635 26.895 78.5716 26.411 78.6779C26.1672 78.7319 25.9234 78.7842 25.6796 78.84C25.2787 78.9283 24.8778 79.0148 24.4769 79.103C24.2674 79.1481 24.0597 79.1931 23.8503 79.24C23.2489 79.3715 22.6475 79.5012 22.0462 79.6309C22.0227 79.6345 21.9974 79.6399 21.9739 79.6471H83.1997C84.3392 79.6471 85.1302 78.7013 85.2729 77.579L92.4875 20.2162C92.6283 19.0939 91.5466 18.1499 90.4161 18.1499ZM39.4858 18.1499C39.4858 13.8029 41.624 9.95679 44.9108 7.60225C47.0472 6.06919 49.6675 5.16845 52.4992 5.16845C55.3363 5.16845 57.9585 6.06919 60.0949 7.60225C63.3798 9.95679 65.5144 13.8011 65.5144 18.1499H39.4858Z" fill="#2A9D8F"/>
<path d="M61.4982 63.3365C63.4991 67.9933 61.211 69.5444 55.0782 71.562C55.0258 71.58 54.9716 71.5963 54.9174 71.6143C54.8253 71.6449 54.7314 71.6755 54.6357 71.7061C54.6194 71.7115 54.6032 71.7151 54.5869 71.7206C54.4732 71.7566 54.3576 71.7926 54.2384 71.8304C53.8826 71.9421 53.5052 72.0556 53.1043 72.1745C52.9725 72.2142 52.8352 72.2538 52.698 72.2934C52.5246 72.3439 52.3494 72.3943 52.1688 72.4448C52.0785 72.4718 51.9864 72.497 51.8925 72.524C51.4808 72.6411 51.0492 72.7618 50.6031 72.8825C50.4749 72.9185 50.3467 72.9528 50.2148 72.9888C49.7272 73.1221 49.2216 73.2572 48.6997 73.3941C48.5263 73.4392 48.3511 73.486 48.1724 73.5328C47.9936 73.5797 47.813 73.6265 47.6324 73.6734C47.45 73.7202 47.2676 73.767 47.0816 73.8157C47.0671 73.8193 47.0527 73.8229 47.0364 73.8265C46.8775 73.8679 46.7168 73.9094 46.5543 73.9508C46.2292 74.0337 45.9005 74.1183 45.5664 74.2012C45.3064 74.2678 45.0445 74.3327 44.779 74.3994C44.2842 74.5237 43.7786 74.648 43.2657 74.7741C43.0634 74.8245 42.8594 74.8749 42.6535 74.9254C41.8643 75.1181 41.0571 75.3127 40.2318 75.5109C40.0728 75.5487 39.9139 75.5865 39.755 75.6244C38.7816 75.8568 37.7866 76.091 36.7734 76.3287C36.1901 76.4639 35.5996 76.6008 35.0037 76.7395C34.0736 76.9539 33.1327 77.17 32.1828 77.3844C31.9462 77.4403 31.7079 77.4943 31.4695 77.5465C31.4261 77.5574 31.3828 77.5664 31.3377 77.5772C30.9259 77.6708 30.5142 77.7627 30.1006 77.8564C29.8207 77.9194 29.5408 77.9825 29.2609 78.0438C28.7967 78.1482 28.3308 78.2527 27.8649 78.3554C27.3809 78.4635 26.8951 78.5716 26.4111 78.6779C26.1673 78.7319 25.9235 78.7842 25.6797 78.84C25.2788 78.9283 24.8779 79.0148 24.477 79.103C24.2675 79.1481 24.0598 79.1931 23.8504 79.2399C23.249 79.3714 22.6476 79.5012 22.0463 79.6309C22.0228 79.6345 21.9975 79.6399 21.974 79.6471C19.8882 80.0956 17.8168 80.537 15.7978 80.9604C15.7328 80.973 15.6696 80.9874 15.6046 81C15.6696 80.9802 15.7328 80.9585 15.7978 80.9387L17.1522 56.5827C22.4616 53.8517 24.9628 51.4611 28.6577 44.2372L34.3842 33.0428L34.5558 27.7626C35.1535 24.7758 38.3301 24.048 40.3799 26.8799C42.0738 27.0853 43.9826 28.8795 44.714 32.6428C45.0391 34.3128 44.8892 36.5142 44.5172 38.5301C48.4595 37.0763 52.4451 35.8314 56.4868 34.8749C58.7171 34.3488 60.3604 36.1359 60.7577 38.2508C63.6923 39.0993 64.942 44.1147 62.2079 46.1954C64.691 46.2728 66.0454 53.6463 62.049 55.0136C64.7488 54.8533 65.4062 62.1367 61.4982 63.3365Z" fill="#156C62"/>
<path fill-rule="evenodd" clip-rule="evenodd" d="M62.049 55.0136C66.0454 53.6463 64.691 46.2728 62.2079 46.1954C64.942 44.1147 63.6923 39.0993 60.7577 38.2508C61.0521 39.8127 60.6656 41.5547 59.3329 42.6753C61.816 42.5564 63.1722 49.8199 59.174 51.5061C61.8738 51.1296 62.5329 58.3608 58.6231 59.874C60.6241 64.3687 58.336 66.1035 52.2031 68.6112C45.9186 71.1801 29.799 76.4639 15.7978 80.9387C15.7328 80.9585 15.6696 80.9802 15.6046 81C15.6696 80.9874 15.7328 80.973 15.7978 80.9604C17.8168 80.537 19.8882 80.0956 21.974 79.6471C21.9975 79.6399 22.0228 79.6345 22.0463 79.6309C22.6458 79.5011 23.2472 79.3696 23.8504 79.2399C24.0598 79.1931 24.2675 79.1481 24.477 79.103C24.8779 79.0148 25.2788 78.9265 25.6797 78.84C25.9235 78.7842 26.1673 78.7319 26.4111 78.6779C26.8969 78.5698 27.3809 78.4635 27.8649 78.3554C28.3308 78.2509 28.7967 78.1482 29.2609 78.0438C29.5408 77.9825 29.8207 77.9194 30.1006 77.8564C30.5142 77.7627 30.9277 77.669 31.3377 77.5772C31.3828 77.5664 31.4261 77.5574 31.4695 77.5465C31.7079 77.4925 31.9463 77.4384 32.1828 77.3844C33.1327 77.17 34.0736 76.9539 35.0037 76.7395C35.5996 76.6008 36.1901 76.4638 36.7734 76.3287C37.7866 76.0909 38.7816 75.8568 39.755 75.6244C39.9139 75.5865 40.0728 75.5487 40.2318 75.5109C41.0571 75.3127 41.8643 75.1181 42.6535 74.9254C42.8594 74.8749 43.0634 74.8245 43.2657 74.7741C43.7786 74.648 44.2842 74.5236 44.779 74.3993C45.0445 74.3327 45.3064 74.2678 45.5664 74.2012C45.9005 74.1183 46.2292 74.0336 46.5543 73.9508C46.7168 73.9093 46.8775 73.8679 47.0364 73.8265C47.0527 73.8229 47.0671 73.8193 47.0816 73.8157C47.2676 73.767 47.45 73.7202 47.6324 73.6734C47.813 73.6265 47.9936 73.5797 48.1724 73.5328C48.3511 73.486 48.5263 73.4392 48.6997 73.3941C49.2216 73.2572 49.7272 73.1221 50.2148 72.9888C50.3467 72.9528 50.4749 72.9185 50.6031 72.8825C51.0492 72.7618 51.4808 72.6411 51.8925 72.524C51.9864 72.497 52.0785 72.4718 52.1688 72.4447C52.3494 72.3943 52.5246 72.3439 52.698 72.2934C52.8352 72.2538 52.9725 72.2142 53.1043 72.1745C53.5052 72.0556 53.8826 71.9421 54.2384 71.8304C54.3576 71.7944 54.4732 71.7566 54.5869 71.7206C54.6032 71.7151 54.6194 71.7115 54.6357 71.7061C54.7314 71.6755 54.8253 71.6449 54.9174 71.6143C54.9716 71.5962 55.0258 71.58 55.0782 71.562C61.211 69.5444 63.4991 67.9933 61.4982 63.3365C65.4062 62.1367 64.7488 54.8533 62.049 55.0136ZM44.714 32.6428C43.9826 28.8795 42.0738 27.0853 40.3799 26.8799C41.0083 27.7464 41.5284 28.9462 41.839 30.5171C42.3772 33.2301 41.6169 37.4996 40.7067 40.0019C41.9727 39.4902 43.2422 39.0002 44.5172 38.5301C44.8892 36.5142 45.0391 34.3128 44.714 32.6428Z" fill="#C8FFF8"/>
</g>
<path d="M9.7205 124.224C9.37917 124.288 8.99517 124.32 8.5685 124.32C6.41383 124.32 4.74983 123.509 3.5765 121.888C2.40317 120.245 1.79517 117.995 1.7525 115.136C1.73117 113.643 1.7845 112.299 1.9125 111.104C2.06183 109.888 2.31783 108.736 2.6805 107.648C3.04317 106.56 3.52317 105.653 4.1205 104.928C4.71783 104.181 5.4965 103.595 6.4565 103.168C7.4165 102.741 8.52583 102.528 9.7845 102.528H10.8405V106.112H9.9125C9.2085 106.112 8.61117 106.293 8.1205 106.656C7.62983 107.019 7.2565 107.467 7.0005 108C6.7445 108.512 6.54183 109.205 6.3925 110.08C6.24317 110.955 6.14717 111.755 6.1045 112.48C6.08317 113.184 6.0725 114.069 6.0725 115.136C6.0725 118.635 7.04317 120.384 8.9845 120.384C9.32583 120.384 9.57117 120.373 9.7205 120.352V124.224ZM27.2435 124H22.7635C22.6355 123.104 22.4542 122.197 22.2195 121.28C21.9848 120.363 21.6648 119.403 21.2595 118.4C20.8755 117.397 20.3742 116.587 19.7555 115.968C19.1368 115.328 18.4542 115.008 17.7075 115.008C16.9822 115.008 16.4382 115.243 16.0755 115.712C15.7128 116.181 15.5315 116.8 15.5315 117.568C15.5315 118.165 15.5848 118.752 15.6915 119.328H11.3395C11.1475 118.539 11.0515 117.803 11.0515 117.12C11.0515 115.435 11.5742 114.005 12.6195 112.832C13.6648 111.659 15.1155 111.072 16.9715 111.072C19.5742 111.072 21.5048 112.341 22.7635 114.88V106.112H9.5475V102.528H29.6755V106.112H27.2435V124ZM33.9593 113.664C33.9593 111.744 34.6633 110.208 36.0713 109.056C37.5006 107.904 39.2926 107.328 41.4473 107.328C43.3673 107.328 44.8393 107.829 45.8633 108.832C46.9086 109.835 47.4313 111.221 47.4313 112.992V125.376H42.9513C42.9513 124.608 42.5673 124.224 41.7993 124.224C41.3513 124.224 40.4446 124.416 39.0793 124.8C37.7139 125.184 36.6046 125.376 35.7513 125.376C34.1513 125.376 32.8073 124.939 31.7193 124.064C30.6313 123.211 30.0872 121.856 30.0872 120C30.0872 119.232 30.1726 118.507 30.3433 117.824L34.3753 117.792C34.2899 118.261 34.2473 118.784 34.2473 119.36C34.2473 120.811 34.9833 121.536 36.4553 121.536C37.0099 121.536 37.8526 121.387 38.9833 121.088C40.1353 120.768 40.9353 120.608 41.3833 120.608C42.0446 120.608 42.5673 120.789 42.9513 121.152V112.896C42.9513 111.744 42.4073 111.168 41.3193 111.168C40.5299 111.168 39.8366 111.392 39.2393 111.84C38.6633 112.288 38.3753 112.896 38.3753 113.664C38.3753 114.24 38.5459 114.677 38.8873 114.976C39.2499 115.275 39.7299 115.424 40.3273 115.424C40.6046 115.424 40.8286 115.413 40.9993 115.392V118.912C40.5513 118.976 40.1033 119.008 39.6553 119.008C37.9913 119.008 36.6259 118.581 35.5593 117.728C34.4926 116.853 33.9593 115.499 33.9593 113.664ZM28.3912 102.528H50.1513V106.112H28.3912V102.528ZM79.26 106.112H75.58V124H71.1V121.28C71.1 119.723 70.6947 118.475 69.884 117.536C69.0947 116.597 67.9853 116.128 66.556 116.128C65.66 116.128 64.956 116.32 64.444 116.704C63.9533 117.067 63.708 117.579 63.708 118.24C63.708 118.901 63.932 119.392 64.38 119.712C64.8493 120.032 65.436 120.192 66.14 120.192C66.524 120.192 66.9293 120.171 67.356 120.128V123.808C66.7587 123.936 66.044 124 65.212 124C63.4413 124 61.98 123.499 60.828 122.496C59.6973 121.493 59.132 120.064 59.132 118.208C59.132 116.8 59.4947 115.627 60.22 114.688C60.9667 113.728 61.9693 113.045 63.228 112.64C62.9933 111.509 62.5133 110.699 61.788 110.208C61.084 109.717 60.092 109.472 58.812 109.472V106.112H56.86V102.528H79.26V106.112ZM71.1 114.752V106.112H62.876C64.156 106.688 65.18 107.52 65.948 108.608C66.7373 109.696 67.2387 110.944 67.452 112.352C69.116 112.629 70.332 113.429 71.1 114.752ZM87.2488 106.112H84.5288V124H80.0488V108.096C80.0488 107.264 79.9314 106.731 79.6968 106.496C79.4834 106.24 79.0354 106.112 78.3528 106.112H77.3287V102.528H78.9288C79.6328 102.528 80.1661 102.891 80.5288 103.616C80.3154 102.464 80.2088 101.44 80.2088 100.544V99.968H84.5288V102.528H87.2488V106.112ZM103.618 115.616C103.618 117.877 102.818 119.893 101.218 121.664C99.6391 123.435 97.5591 124.32 94.9778 124.32C93.2498 124.32 91.7671 123.819 90.5298 122.816C89.2924 121.813 88.6738 120.469 88.6738 118.784V106.112H85.9537V102.528H98.7218C98.7218 102.421 98.7218 102.261 98.7218 102.048C98.7431 101.835 98.7538 101.707 98.7538 101.664C98.7538 101.003 98.6364 100.512 98.4018 100.192C98.1884 99.872 97.7511 99.712 97.0898 99.712C96.6204 99.712 95.6924 99.8187 94.3058 100.032C92.9191 100.224 91.8844 100.32 91.2018 100.32C89.7724 100.32 88.6631 100.085 87.8738 99.616V96.192C88.5351 96.5547 89.5058 96.736 90.7858 96.736C91.4471 96.736 92.5244 96.608 94.0178 96.352C95.5324 96.096 96.7271 95.968 97.6018 95.968C99.2871 95.968 100.578 96.416 101.474 97.312C102.37 98.1867 102.818 99.424 102.818 101.024C102.818 101.536 102.775 102.037 102.69 102.528H105.314V106.112H93.1538V118.784C93.1538 119.317 93.3244 119.733 93.6658 120.032C94.0071 120.331 94.4444 120.48 94.9778 120.48C96.2364 120.48 97.2391 119.979 97.9858 118.976C98.7538 117.952 99.1378 116.832 99.1378 115.616C99.1378 113.888 98.2311 113.024 96.4178 113.024C95.9484 113.024 95.5004 113.067 95.0738 113.152V109.248C95.7351 109.099 96.4071 109.024 97.0898 109.024C99.1591 109.024 100.759 109.621 101.89 110.816C103.042 112.011 103.618 113.611 103.618 115.616ZM91.7317 98.12L97.2037 92.744H101.588V92.872L96.1477 98.248H91.7317V98.12Z" fill="#2A9D8F"/>
<defs>
<clipPath id="clip0_85_770">
<rect width="80" height="81" fill="white" transform="translate(12.5)"/>
</clipPath>
</defs>
</svg>
